<svg width="20" height="20" viewBox="0 0 20 20" fill="none" xmlns="http://www.w3.org/2000/svg">
<path d="M9.16772 9.99967C9.16772 10.2207 9.25552 10.4326 9.4118 10.5889C9.56808 10.7452 9.78004 10.833 10.0011 10.833C10.2221 10.833 10.434 10.7452 10.5903 10.5889C10.7466 10.4326 10.8344 10.2207 10.8344 9.99967C10.8344 9.77866 10.7466 9.5667 10.5903 9.41042C10.434 9.25414 10.2221 9.16634 10.0011 9.16634C9.78004 9.16634 9.56808 9.25414 9.4118 9.41042C9.25552 9.5667 9.16772 9.77866 9.16772 9.99967ZM9.16772 15.833C9.16772 16.054 9.25552 16.266 9.4118 16.4223C9.56808 16.5785 9.78004 16.6663 10.0011 16.6663C10.2221 16.6663 10.434 16.5785 10.5903 16.4223C10.7466 16.266 10.8344 16.054 10.8344 15.833C10.8344 15.612 10.7466 15.4 10.5903 15.2438C10.434 15.0875 10.2221 14.9997 10.0011 14.9997C9.78004 14.9997 9.56808 15.0875 9.4118 15.2438C9.25552 15.4 9.16772 15.612 9.16772 15.833ZM9.16772 4.16634C9.16772 4.38735 9.25552 4.59932 9.4118 4.7556C9.56808 4.91188 9.78004 4.99967 10.0011 4.99967C10.2221 4.99967 10.434 4.91188 10.5903 4.7556C10.7466 4.59932 10.8344 4.38735 10.8344 4.16634C10.8344 3.94533 10.7466 3.73337 10.5903 3.57709C10.434 3.42081 10.2221 3.33301 10.0011 3.33301C9.78004 3.33301 9.56808 3.42081 9.4118 3.57709C9.25552 3.73337 9.16772 3.94533 9.16772 4.16634Z" stroke="#9D9FA2" stroke-width="1.15385" stroke-linecap="round" stroke-linejoin="round"/>
</svg>
