<svg width="20" height="20" viewBox="0 0 20 20" fill="none" xmlns="http://www.w3.org/2000/svg">
<path fill-rule="evenodd" clip-rule="evenodd" d="M3.39924 5.44286C3.52945 5.01605 3.92633 4.70557 4.39574 4.70557H16.0624C16.5318 4.70557 16.9287 5.01605 17.0589 5.44286L10.2291 9.99608L3.39924 5.44286ZM2.1041 5.73579C2.10398 5.74245 2.10397 5.74912 2.10407 5.75578V14.0806C2.10407 15.3462 3.13008 16.3722 4.39574 16.3722H16.0624C17.3281 16.3722 18.3541 15.3462 18.3541 14.0806V5.7557M17.1041 6.91506V14.0806C17.1041 14.6559 16.6377 15.1222 16.0624 15.1222H4.39574C3.82044 15.1222 3.35407 14.6559 3.35407 14.0806V6.91506L9.88238 11.2673C10.0923 11.4072 10.3658 11.4072 10.5758 11.2673L17.1041 6.91506ZM18.354 5.73587C18.3479 4.47545 17.3243 3.45557 16.0624 3.45557H4.39574C3.1339 3.45557 2.11026 4.4754 2.1041 5.73579" fill="#5F6980"/>
</svg>
