<svg width="21" height="20" viewBox="0 0 21 20" fill="none" xmlns="http://www.w3.org/2000/svg">
<path fill-rule="evenodd" clip-rule="evenodd" d="M10.918 2.03082C10.8055 2.03082 10.6935 2.03316 10.5822 2.03777C10.5112 2.02532 10.4387 2.02962 10.3706 2.04933C6.22474 2.33059 2.94897 5.78266 2.94897 9.99982C2.94897 14.217 6.22474 17.6691 10.3706 17.9503C10.4387 17.97 10.5112 17.9743 10.5822 17.9619C10.6935 17.9665 10.8055 17.9688 10.918 17.9688C11.0304 17.9688 11.1423 17.9665 11.2535 17.9619C11.3245 17.9743 11.3969 17.97 11.465 17.9503C15.611 17.6693 18.887 14.2171 18.887 9.99982C18.887 5.78253 15.611 2.33039 11.465 2.04931C11.3969 2.02962 11.3245 2.02533 11.2535 2.03776C11.1423 2.03315 11.0304 2.03082 10.918 2.03082ZM11.0726 2.97048C11.0212 2.96937 10.9697 2.96882 10.918 2.96882C10.8662 2.96882 10.8146 2.96938 10.763 2.97049C9.99862 4.2487 9.45997 5.62068 9.14708 7.03104H12.6886C12.3757 5.62068 11.837 4.24869 11.0726 2.97048ZM12.8626 7.96904H8.97303C8.77145 9.31525 8.77147 10.6848 8.9731 12.031H12.8626C13.0642 10.6848 13.0642 9.31525 12.8626 7.96904ZM13.8104 12.031C13.9989 10.6839 13.9989 9.31622 13.8104 7.96904H17.6512C17.8449 8.61199 17.949 9.29375 17.949 9.99982C17.949 10.7061 17.8449 11.388 17.6511 12.031H13.8104ZM12.6885 12.969H9.14718C9.46008 14.3792 9.9987 15.7511 10.763 17.0291C10.8145 17.0303 10.8662 17.0308 10.918 17.0308C10.9697 17.0308 11.0212 17.0303 11.0726 17.0292C11.837 15.7511 12.3756 14.3792 12.6885 12.969ZM12.2174 16.911C12.8896 15.6568 13.3664 14.3285 13.6478 12.969H17.2931C16.3499 14.9908 14.4732 16.4895 12.2174 16.911ZM13.6479 7.03104C13.3665 5.67145 12.8896 4.34294 12.2174 3.08865C14.4734 3.51018 16.3501 5.00908 17.2933 7.03104H13.6479ZM9.61826 16.9109C8.94608 15.6568 8.46928 14.3285 8.18787 12.969H4.54283C5.48602 14.9907 7.36254 16.4894 9.61826 16.9109ZM8.02531 12.031C7.83674 10.6839 7.83672 9.31622 8.02525 7.96904H4.18469C3.99104 8.61199 3.88697 9.29375 3.88697 9.99982C3.88697 10.7061 3.99109 11.388 4.18483 12.031H8.02531ZM8.18778 7.03104C8.46918 5.67148 8.94601 4.34298 9.61826 3.0887C7.36237 3.51031 5.48575 5.00917 4.54263 7.03104H8.18778Z" fill="#5F6980"/>
</svg>
