<svg width="20" height="20" viewBox="0 0 20 20" fill="none" xmlns="http://www.w3.org/2000/svg">
<path fill-rule="evenodd" clip-rule="evenodd" d="M4.18481 4.12386C4.18481 4.0088 4.27809 3.91553 4.39315 3.91553H7.72648C7.84154 3.91553 7.93481 4.0088 7.93481 4.12386V7.45719C7.93481 7.57225 7.84154 7.66553 7.72648 7.66553H4.39315C4.27809 7.66553 4.18481 7.57225 4.18481 7.45719V4.12386ZM4.39315 2.66553C3.58773 2.66553 2.93481 3.31845 2.93481 4.12386V7.45719C2.93481 8.26261 3.58773 8.91553 4.39315 8.91553H7.72648C8.5319 8.91553 9.18481 8.26261 9.18481 7.45719V4.12386C9.18481 3.31845 8.5319 2.66553 7.72648 2.66553H4.39315ZM12.5181 4.12386C12.5181 4.0088 12.6114 3.91553 12.7265 3.91553H16.0598C16.1749 3.91553 16.2681 4.0088 16.2681 4.12386V7.45719C16.2681 7.57225 16.1749 7.66553 16.0598 7.66553H12.7265C12.6114 7.66553 12.5181 7.57225 12.5181 7.45719V4.12386ZM12.7265 2.66553C11.9211 2.66553 11.2681 3.31845 11.2681 4.12386V7.45719C11.2681 8.26261 11.9211 8.91553 12.7265 8.91553H16.0598C16.8652 8.91553 17.5181 8.26261 17.5181 7.45719V4.12386C17.5181 3.31845 16.8652 2.66553 16.0598 2.66553H12.7265ZM4.39315 12.2489C4.27809 12.2489 4.18481 12.3421 4.18481 12.4572V15.7905C4.18481 15.9056 4.27809 15.9989 4.39315 15.9989H7.72648C7.84154 15.9989 7.93481 15.9056 7.93481 15.7905V12.4572C7.93481 12.3421 7.84154 12.2489 7.72648 12.2489H4.39315ZM2.93481 12.4572C2.93481 11.6518 3.58773 10.9989 4.39315 10.9989H7.72648C8.5319 10.9989 9.18481 11.6518 9.18481 12.4572V15.7905C9.18481 16.5959 8.5319 17.2489 7.72648 17.2489H4.39315C3.58773 17.2489 2.93481 16.5959 2.93481 15.7905V12.4572ZM12.5181 12.4572C12.5181 12.3421 12.6114 12.2489 12.7265 12.2489H16.0598C16.1749 12.2489 16.2681 12.3421 16.2681 12.4572V15.7905C16.2681 15.9056 16.1749 15.9989 16.0598 15.9989H12.7265C12.6114 15.9989 12.5181 15.9056 12.5181 15.7905V12.4572ZM12.7265 10.9989C11.9211 10.9989 11.2681 11.6518 11.2681 12.4572V15.7905C11.2681 16.5959 11.9211 17.2489 12.7265 17.2489H16.0598C16.8652 17.2489 17.5181 16.5959 17.5181 15.7905V12.4572C17.5181 11.6518 16.8652 10.9989 16.0598 10.9989H12.7265Z" fill="#5F6980"/>
</svg>
