<svg width="24" height="24" viewBox="0 0 24 24" fill="none" xmlns="http://www.w3.org/2000/svg">
<path fill-rule="evenodd" clip-rule="evenodd" d="M5.02246 4.94824C5.02246 4.81017 5.13439 4.69824 5.27246 4.69824H9.27246C9.41053 4.69824 9.52246 4.81017 9.52246 4.94824V8.94824C9.52246 9.08631 9.41053 9.19824 9.27246 9.19824H5.27246C5.13439 9.19824 5.02246 9.08631 5.02246 8.94824V4.94824ZM5.27246 3.19824C4.30596 3.19824 3.52246 3.98174 3.52246 4.94824V8.94824C3.52246 9.91474 4.30596 10.6982 5.27246 10.6982H9.27246C10.239 10.6982 11.0225 9.91474 11.0225 8.94824V4.94824C11.0225 3.98174 10.239 3.19824 9.27246 3.19824H5.27246ZM15.0225 4.94824C15.0225 4.81017 15.1344 4.69824 15.2725 4.69824H19.2725C19.4105 4.69824 19.5225 4.81017 19.5225 4.94824V8.94824C19.5225 9.08631 19.4105 9.19824 19.2725 9.19824H15.2725C15.1344 9.19824 15.0225 9.08631 15.0225 8.94824V4.94824ZM15.2725 3.19824C14.306 3.19824 13.5225 3.98174 13.5225 4.94824V8.94824C13.5225 9.91474 14.306 10.6982 15.2725 10.6982H19.2725C20.239 10.6982 21.0225 9.91474 21.0225 8.94824V4.94824C21.0225 3.98174 20.239 3.19824 19.2725 3.19824H15.2725ZM5.27246 14.6982C5.13439 14.6982 5.02246 14.8102 5.02246 14.9482V18.9482C5.02246 19.0863 5.13439 19.1982 5.27246 19.1982H9.27246C9.41053 19.1982 9.52246 19.0863 9.52246 18.9482V14.9482C9.52246 14.8102 9.41053 14.6982 9.27246 14.6982H5.27246ZM3.52246 14.9482C3.52246 13.9817 4.30596 13.1982 5.27246 13.1982H9.27246C10.239 13.1982 11.0225 13.9817 11.0225 14.9482V18.9482C11.0225 19.9147 10.239 20.6982 9.27246 20.6982H5.27246C4.30596 20.6982 3.52246 19.9147 3.52246 18.9482V14.9482ZM15.0225 14.9482C15.0225 14.8102 15.1344 14.6982 15.2725 14.6982H19.2725C19.4105 14.6982 19.5225 14.8102 19.5225 14.9482V18.9482C19.5225 19.0863 19.4105 19.1982 19.2725 19.1982H15.2725C15.1344 19.1982 15.0225 19.0863 15.0225 18.9482V14.9482ZM15.2725 13.1982C14.306 13.1982 13.5225 13.9817 13.5225 14.9482V18.9482C13.5225 19.9147 14.306 20.6982 15.2725 20.6982H19.2725C20.239 20.6982 21.0225 19.9147 21.0225 18.9482V14.9482C21.0225 13.9817 20.239 13.1982 19.2725 13.1982H15.2725Z" fill="#5F6980"/>
</svg>
