<svg width="21" height="20" viewBox="0 0 21 20" fill="none" xmlns="http://www.w3.org/2000/svg">
<path fill-rule="evenodd" clip-rule="evenodd" d="M5.14054 2.66553C4.53276 2.66553 3.94986 2.90697 3.52009 3.33674C3.09032 3.76651 2.84888 4.34941 2.84888 4.95719V14.9572C2.84888 15.565 3.09032 16.1479 3.52009 16.5776C3.94986 17.0074 4.53276 17.2489 5.14054 17.2489H10.9739C11.5817 17.2489 12.1646 17.0074 12.5943 16.5776C13.0241 16.1479 13.2655 15.565 13.2655 14.9572V13.2905C13.2655 12.9453 12.9857 12.6655 12.6405 12.6655C12.2954 12.6655 12.0155 12.9453 12.0155 13.2905V14.9572C12.0155 15.2335 11.9058 15.4984 11.7104 15.6938C11.5151 15.8891 11.2501 15.9989 10.9739 15.9989H5.14054C4.86428 15.9989 4.59932 15.8891 4.40397 15.6938C4.20862 15.4984 4.09888 15.2335 4.09888 14.9572V4.95719C4.09888 4.68093 4.20862 4.41597 4.40397 4.22062C4.59932 4.02527 4.86428 3.91553 5.14054 3.91553H10.9739C11.2501 3.91553 11.5151 4.02527 11.7104 4.22062C11.9058 4.41597 12.0155 4.68093 12.0155 4.95719V6.62386C12.0155 6.96904 12.2954 7.24886 12.6405 7.24886C12.9857 7.24886 13.2655 6.96904 13.2655 6.62386V4.95719C13.2655 4.34941 13.0241 3.76651 12.5943 3.33674C12.1646 2.90697 11.5817 2.66553 10.9739 2.66553H5.14054ZM16.4158 7.01525C16.1717 6.77117 15.776 6.77117 15.5319 7.01525C15.2879 7.25933 15.2879 7.65506 15.5319 7.89914L16.965 9.33219H6.80721C6.46203 9.33219 6.18221 9.61202 6.18221 9.95719C6.18221 10.3024 6.46203 10.5822 6.80721 10.5822H16.965L15.5319 12.0153C15.2879 12.2593 15.2879 12.6551 15.5319 12.8991C15.776 13.1432 16.1717 13.1432 16.4158 12.8991L18.9125 10.4024C18.9246 10.3906 18.9361 10.3782 18.9472 10.3654C19.0299 10.2697 19.0788 10.1548 19.0939 10.0365C19.099 9.99663 19.1002 9.95656 19.0976 9.91684C19.0882 9.7706 19.0276 9.62702 18.9158 9.51525L16.4158 7.01525Z" fill="#5F6980"/>
</svg>
