<svg width="20" height="20" viewBox="0 0 20 20" fill="none" xmlns="http://www.w3.org/2000/svg">
<path fill-rule="evenodd" clip-rule="evenodd" d="M4.13794 8.50975C4.13794 6.14286 6.05668 4.22412 8.42357 4.22412C10.7905 4.22412 12.7092 6.14286 12.7092 8.50975C12.7092 10.8766 10.7905 12.7954 8.42357 12.7954C6.05668 12.7954 4.13794 10.8766 4.13794 8.50975ZM8.42357 2.97412C5.36632 2.97412 2.88794 5.45251 2.88794 8.50975C2.88794 11.567 5.36632 14.0454 8.42357 14.0454C9.72701 14.0454 10.9252 13.5949 11.871 12.8411L15.6981 16.6681C15.9422 16.9122 16.3379 16.9122 16.582 16.6681C16.826 16.4241 16.826 16.0283 16.582 15.7843L12.7549 11.9572C13.5087 11.0114 13.9592 9.81319 13.9592 8.50975C13.9592 5.45251 11.4808 2.97412 8.42357 2.97412Z" fill="#282828"/>
</svg>
