<svg width="21" height="20" viewBox="0 0 21 20" fill="none" xmlns="http://www.w3.org/2000/svg">
<path fill-rule="evenodd" clip-rule="evenodd" d="M10.7096 6.45817C10.7096 5.5377 11.4558 4.7915 12.3763 4.7915C13.2968 4.7915 14.043 5.5377 14.043 6.45817C14.043 7.37864 13.2968 8.12484 12.3763 8.12484C11.4558 8.12484 10.7096 7.37864 10.7096 6.45817ZM9.52676 7.08317H3.41797C3.07279 7.08317 2.79297 6.80335 2.79297 6.45817C2.79297 6.11299 3.07279 5.83317 3.41797 5.83317H9.52676C9.81287 4.52268 10.98 3.5415 12.3763 3.5415C13.7726 3.5415 14.9397 4.52268 15.2258 5.83317H18.418C18.7631 5.83317 19.043 6.11299 19.043 6.45817C19.043 6.80335 18.7631 7.08317 18.418 7.08317H15.2258C14.9397 8.39366 13.7726 9.37484 12.3763 9.37484C10.98 9.37484 9.81287 8.39366 9.52676 7.08317ZM5.70964 13.1248C5.70964 12.2044 6.45583 11.4582 7.3763 11.4582C8.29678 11.4582 9.04297 12.2044 9.04297 13.1248C9.04297 14.0453 8.29678 14.7915 7.3763 14.7915C6.45583 14.7915 5.70964 14.0453 5.70964 13.1248ZM7.3763 16.0415C5.98 16.0415 4.81287 15.0603 4.52676 13.7498H3.41797C3.07279 13.7498 2.79297 13.47 2.79297 13.1248C2.79297 12.7797 3.07279 12.4998 3.41797 12.4998H4.52676C4.81287 11.1893 5.98 10.2082 7.3763 10.2082C8.7726 10.2082 9.93973 11.1893 10.2258 12.4998H18.418C18.7631 12.4998 19.043 12.7797 19.043 13.1248C19.043 13.47 18.7631 13.7498 18.418 13.7498H10.2258C9.93973 15.0603 8.7726 16.0415 7.3763 16.0415Z" fill="#5F6980"/>
</svg>
