<svg width="20" height="20" viewBox="0 0 20 20" fill="none" xmlns="http://www.w3.org/2000/svg">
<path fill-rule="evenodd" clip-rule="evenodd" d="M6.94523 6.66683C6.94523 5.17106 8.15779 3.9585 9.65356 3.9585C11.1493 3.9585 12.3619 5.17106 12.3619 6.66683C12.3619 8.1626 11.1493 9.37516 9.65356 9.37516C8.15779 9.37516 6.94523 8.1626 6.94523 6.66683ZM9.65356 2.7085C7.46744 2.7085 5.69523 4.4807 5.69523 6.66683C5.69523 8.85296 7.46744 10.6252 9.65356 10.6252C11.8397 10.6252 13.6119 8.85296 13.6119 6.66683C13.6119 4.4807 11.8397 2.7085 9.65356 2.7085ZM6.07182 13.8322C6.57973 13.3242 7.2686 13.0389 7.9869 13.0389H11.3202C12.0385 13.0389 12.7274 13.3242 13.2353 13.8322C13.7432 14.3401 14.0286 15.0289 14.0286 15.7472V17.4139C14.0286 17.7591 14.3084 18.0389 14.6536 18.0389C14.9987 18.0389 15.2786 17.7591 15.2786 17.4139V15.7472C15.2786 14.6974 14.8615 13.6906 14.1192 12.9483C13.3769 12.2059 12.37 11.7889 11.3202 11.7889H7.9869C6.93708 11.7889 5.93026 12.2059 5.18793 12.9483C4.4456 13.6906 4.02856 14.6974 4.02856 15.7472V17.4139C4.02856 17.7591 4.30839 18.0389 4.65356 18.0389C4.99874 18.0389 5.27856 17.7591 5.27856 17.4139V15.7472C5.27856 15.0289 5.56391 14.3401 6.07182 13.8322Z" fill="#5F6980"/>
</svg>
