<svg width="100" height="30" viewBox="0 0 100 30" fill="none" xmlns="http://www.w3.org/2000/svg">
<path fill-rule="evenodd" clip-rule="evenodd" d="M4.9919 10.2607C4.9919 7.50236 7.22278 5.26074 9.9835 5.26074C12.7441 5.26074 14.9749 7.50221 14.9751 10.2605C17.7357 10.2606 19.9664 12.5022 19.9664 15.2605H17.4706C17.4706 13.8848 16.3482 12.7605 14.9748 12.7605V10.2607H12.4793C12.4793 8.88504 11.3569 7.76074 9.9835 7.76074C8.61011 7.76074 7.4877 8.88504 7.4877 10.2607H4.9919ZM31.6585 23.0986C29.6147 23.0986 27.9954 22.5295 26.8006 21.3913C25.6058 20.2372 25.0083 18.5931 25.0083 16.4589V12.4751C25.0083 10.3409 25.6058 8.70469 26.8006 7.56645C27.9954 6.41241 29.6147 5.83538 31.6585 5.83538C33.6866 5.83538 35.2509 6.3966 36.3514 7.51902C37.4676 8.62564 38.0257 10.1512 38.0257 12.0957V12.238H34.9601V12.0008C34.9601 11.0207 34.6849 10.2144 34.1347 9.58208C33.6001 8.94972 32.7748 8.63355 31.6585 8.63355C30.558 8.63355 29.6934 8.97344 29.0645 9.65322C28.4356 10.333 28.1212 11.2578 28.1212 12.4277V16.5063C28.1212 17.6604 28.4356 18.5852 29.0645 19.2808C29.6934 19.9606 30.558 20.3005 31.6585 20.3005C32.7748 20.3005 33.6001 19.9843 34.1347 19.3519C34.6849 18.7038 34.9601 17.8975 34.9601 16.9332V16.5063H38.0257V16.8383C38.0257 18.7828 37.4676 20.3163 36.3514 21.4387C35.2509 22.5453 33.6866 23.0986 31.6585 23.0986ZM39.9144 22.7666V6.16737H42.8858V22.7666H39.9144ZM47.8654 22.3872C48.793 22.8615 49.8384 23.0986 51.0018 23.0986C52.1652 23.0986 53.2107 22.8615 54.1383 22.3872C55.0658 21.913 55.7969 21.2253 56.3314 20.3242C56.8659 19.4231 57.1332 18.3402 57.1332 17.0755V16.696C57.1332 15.4313 56.8659 14.3484 56.3314 13.4473C55.7969 12.5462 55.0658 11.8585 54.1383 11.3843C53.2107 10.91 52.1652 10.6729 51.0018 10.6729C49.8384 10.6729 48.793 10.91 47.8654 11.3843C46.9378 11.8585 46.2068 12.5462 45.6722 13.4473C45.1377 14.3484 44.8704 15.4313 44.8704 16.696V17.0755C44.8704 18.3402 45.1377 19.4231 45.6722 20.3242C46.2068 21.2253 46.9378 21.913 47.8654 22.3872ZM53.2657 19.5654C52.6683 20.1503 51.9137 20.4427 51.0018 20.4427C50.09 20.4427 49.3353 20.1503 48.7379 19.5654C48.1405 18.9646 47.8418 18.1109 47.8418 17.0043V16.7672C47.8418 15.6606 48.1405 14.8148 48.7379 14.2299C49.3353 13.6291 50.09 13.3288 51.0018 13.3288C51.9294 13.3288 52.684 13.6291 53.2657 14.2299C53.8631 14.8148 54.1618 15.6606 54.1618 16.7672V17.0043C54.1618 18.1109 53.8631 18.9646 53.2657 19.5654ZM59.1339 22.7666V11.0049H62.0581V12.5462H62.4826C62.6712 12.1352 63.025 11.7479 63.5438 11.3843C64.0626 11.0049 64.8487 10.8152 65.902 10.8152C66.8139 10.8152 67.6078 11.0286 68.2838 11.4554C68.9756 11.8665 69.5101 12.4435 69.8874 13.1865C70.2647 13.9137 70.4534 14.7674 70.4534 15.7475V22.7666H67.482V15.9847C67.482 15.0994 67.2619 14.4354 66.8217 13.9927C66.3972 13.5501 65.7841 13.3288 64.9823 13.3288C64.0704 13.3288 63.363 13.637 62.8599 14.2536C62.3568 14.8543 62.1053 15.7001 62.1053 16.7909V22.7666H59.1339ZM72.9235 11.0049V22.7666H75.8949V11.0049H72.9235ZM73.0414 9.10781C73.4187 9.45561 73.8746 9.6295 74.4092 9.6295C74.9594 9.6295 75.4154 9.45561 75.7769 9.10781C76.1385 8.76002 76.3193 8.30156 76.3193 7.73244C76.3193 7.16333 76.1385 6.70487 75.7769 6.35708C75.4154 6.00928 74.9594 5.83538 74.4092 5.83538C73.8746 5.83538 73.4187 6.00928 73.0414 6.35708C72.6798 6.70487 72.499 7.16333 72.499 7.73244C72.499 8.30156 72.6798 8.76002 73.0414 9.10781ZM80.3792 22.7666V13.471H77.4079V11.0049H80.3792V8.82325C80.3792 8.017 80.6151 7.37674 81.0867 6.90248C81.5741 6.41241 82.2029 6.16737 82.9733 6.16737H86.039V8.63355H84.0109C83.5707 8.63355 83.3506 8.87068 83.3506 9.34494V11.0049H86.4163V13.471H83.3506V22.7666H80.3792ZM89.2481 24.9008V27.5093H96.6057C97.3918 27.5093 98.0207 27.2642 98.4923 26.7742C98.964 26.2999 99.1998 25.6597 99.1998 24.8534V11.0049H96.2284V16.9806C96.2284 18.0714 95.9769 18.9251 95.4738 19.5416C94.9707 20.1424 94.2632 20.4427 93.3514 20.4427C92.5496 20.4427 91.9286 20.2214 91.4884 19.7788C91.0639 19.3361 90.8517 18.6722 90.8517 17.7869V11.0049H87.8803V18.024C87.8803 18.9883 88.069 19.842 88.4463 20.585C88.8236 21.328 89.3503 21.913 90.0263 22.3398C90.718 22.7508 91.5198 22.9563 92.4317 22.9563C93.1391 22.9563 93.7208 22.8694 94.1768 22.6955C94.6327 22.5216 94.9943 22.3003 95.2615 22.0315C95.5288 21.7628 95.7253 21.494 95.8511 21.2253H96.2756V24.1894C96.2756 24.6637 96.0555 24.9008 95.6153 24.9008H89.2481ZM14.9748 20.2605V17.7605C16.3482 17.7605 17.4706 16.6362 17.4706 15.2605H19.9664C19.9664 18.0259 17.7356 20.2605 14.9748 20.2605ZM9.98426 19.9258C12.5637 19.9258 14.6412 17.8308 14.6412 15.261C14.6412 12.6772 12.5637 10.5962 9.98426 10.5962C7.40481 10.5962 5.3273 12.6772 5.3273 15.261C5.3273 17.8308 7.40481 19.9258 9.98426 19.9258ZM9.98426 17.5934C8.70151 17.5934 7.65578 16.5459 7.65578 15.261C7.65578 13.9761 8.70151 12.9286 9.98426 12.9286C11.267 12.9286 12.3127 13.9761 12.3127 15.261C12.3127 16.5459 11.267 17.5934 9.98426 17.5934ZM0 15.2605H2.4958C2.4958 16.6362 3.61821 17.7605 4.9916 17.7605V20.2605C2.23088 20.2605 0 18.0259 0 15.2605ZM0 15.2605H2.4958C2.4958 13.8848 3.61821 12.7605 4.9916 12.7605V10.2605C2.23088 10.2605 0 12.5021 0 15.2605ZM7.4877 20.2609C7.4877 21.6366 8.61011 22.7609 9.9835 22.7609C11.3569 22.7609 12.4793 21.6366 12.4793 20.2609H14.9751C14.9751 23.0262 12.7442 25.2609 9.9835 25.2609C7.22278 25.2609 4.9919 23.0262 4.9919 20.2609H7.4877Z" fill="#282828"/>
</svg>
