<svg width="19" height="28" viewBox="0 0 19 28" fill="none" xmlns="http://www.w3.org/2000/svg">
<path d="M5.4187 27.4375C7.88545 27.4375 9.88745 25.4355 9.88745 22.9688V18.5H5.4187C2.95195 18.5 0.949951 20.502 0.949951 22.9688C0.949951 25.4355 2.95195 27.4375 5.4187 27.4375Z" fill="#0ACF83"/>
<path d="M0.949951 14.0312C0.949951 11.5645 2.95195 9.5625 5.4187 9.5625H9.88745V18.5H5.4187C2.95195 18.5 0.949951 16.498 0.949951 14.0312Z" fill="#A259FF"/>
<path d="M0.949951 5.09375C0.949951 2.627 2.95195 0.625 5.4187 0.625H9.88745V9.5625H5.4187C2.95195 9.5625 0.949951 7.5605 0.949951 5.09375Z" fill="#F24E1E"/>
<path d="M9.88745 0.625H14.3562C16.823 0.625 18.825 2.627 18.825 5.09375C18.825 7.5605 16.823 9.5625 14.3562 9.5625H9.88745V0.625Z" fill="#FF7262"/>
<path d="M18.825 14.0312C18.825 16.498 16.823 18.5 14.3562 18.5C11.8895 18.5 9.88745 16.498 9.88745 14.0312C9.88745 11.5645 11.8895 9.5625 14.3562 9.5625C16.823 9.5625 18.825 11.5645 18.825 14.0312Z" fill="#1ABCFE"/>
</svg>
