<svg width="27" height="19" viewBox="0 0 27 19" fill="none" xmlns="http://www.w3.org/2000/svg">
<path d="M3.03351 12.2256C3.03351 13.2532 3.25813 14.042 3.55194 14.5193C3.93705 15.1445 4.51141 15.4098 5.097 15.4098C5.85218 15.4098 6.54312 15.2217 7.87457 13.3734C8.94153 11.8919 10.1982 9.81253 11.0439 8.50889L12.4761 6.3003C13.4709 4.76647 14.6225 3.06142 15.9428 1.90567C17.021 0.962283 18.1834 0.438232 19.3536 0.438232C21.3182 0.438232 23.1895 1.58091 24.6217 3.72401C26.1892 6.07102 26.95 9.02742 26.95 12.0782C26.95 13.8919 26.5938 15.2245 25.9877 16.2773C25.4022 17.2954 24.2609 18.3128 22.341 18.3128V15.4094C23.9849 15.4094 24.3951 13.8932 24.3951 12.1582C24.3951 9.68572 23.8207 6.94192 22.5554 4.98132C21.6576 3.59065 20.494 2.74095 19.2137 2.74095C17.829 2.74095 16.7148 3.78927 15.4625 5.65789C14.7968 6.65087 14.1133 7.86084 13.3459 9.22626L12.5011 10.7283C10.8043 13.7487 10.3744 14.4363 9.52588 15.5712C8.03877 17.5588 6.76875 18.3123 5.097 18.3123C3.1137 18.3123 1.85963 17.4503 1.08289 16.1514C0.44889 15.0931 0.137451 13.7042 0.137451 12.1218L3.03351 12.2256Z" fill="#0081FB"/>
<path d="M2.4209 3.92821C3.74864 1.87405 5.66478 0.4375 7.86249 0.4375C9.1352 0.4375 10.4007 0.815574 11.7217 1.8984C13.1669 3.08199 14.7073 5.03211 16.6291 8.24472L17.3181 9.39732C18.9815 12.1787 19.9279 13.6096 20.4818 14.2843C21.1941 15.1508 21.6929 15.4092 22.341 15.4092C23.9849 15.4092 24.395 13.8931 24.395 12.158L26.9499 12.0775C26.9499 13.8913 26.5938 15.2239 25.9876 16.2767C25.4021 17.2948 24.2608 18.3122 22.341 18.3122C21.1474 18.3122 20.0901 18.052 18.9209 16.9448C18.0224 16.0951 16.9712 14.5856 16.1627 13.2287L13.758 9.19712C12.5516 7.17385 11.4444 5.66527 10.8043 4.98206C10.1151 4.24732 9.22932 3.36019 7.81577 3.36019C6.67177 3.36019 5.70016 4.16594 4.88714 5.39846L2.4209 3.92821Z" fill="url(#paint0_linear_39_67)"/>
<path d="M7.81583 3.36019C6.67183 3.36019 5.70022 4.16594 4.8872 5.39846C3.73747 7.14003 3.03407 9.73414 3.03407 12.2253C3.03407 13.2529 3.25869 14.0417 3.5525 14.519L1.08289 16.1511C0.44889 15.0928 0.137451 13.7039 0.137451 12.1215C0.137451 9.24379 0.924416 6.24445 2.42096 3.92821C3.74871 1.87405 5.66485 0.4375 7.86255 0.4375L7.81583 3.36019Z" fill="url(#paint1_linear_39_67)"/>
<defs>
<linearGradient id="paint0_linear_39_67" x1="5.30761" y1="15.6383" x2="23.6911" y2="17.3931" gradientUnits="userSpaceOnUse">
<stop stop-color="#0064E1"/>
<stop offset="0.4" stop-color="#0064E1"/>
<stop offset="0.83" stop-color="#0073EE"/>
<stop offset="1" stop-color="#0082FB"/>
</linearGradient>
<linearGradient id="paint1_linear_39_67" x1="5.67921" y1="13.4457" x2="5.67921" y2="6.61407" gradientUnits="userSpaceOnUse">
<stop stop-color="#0082FB"/>
<stop offset="1" stop-color="#0064E0"/>
</linearGradient>
</defs>
</svg>
