<svg width="26" height="26" viewBox="0 0 26 26" fill="none" xmlns="http://www.w3.org/2000/svg">
<path d="M13.0001 18.4166C6.01258 18.4166 0.541748 16.0333 0.541748 12.9999C0.541748 9.96659 6.01258 7.58325 13.0001 7.58325C19.9876 7.58325 25.4584 9.96659 25.4584 12.9999C25.4584 16.0333 19.9876 18.4166 13.0001 18.4166ZM13.0001 8.66659C6.17508 8.66659 1.62508 10.8874 1.62508 12.9999C1.62508 15.1124 6.17508 17.3333 13.0001 17.3333C19.8251 17.3333 24.3751 15.1124 24.3751 12.9999C24.3751 10.8874 19.8251 8.66659 13.0001 8.66659Z" fill="#16B8CD"/>
<path d="M8.17911 24.1584C7.63744 24.1584 7.20411 24.0501 6.77077 23.7792C4.11661 22.2626 4.82077 16.3584 8.28744 10.2917C9.91244 7.47506 11.9166 5.09173 13.8666 3.57506C15.9791 1.95006 17.8749 1.46256 19.1749 2.22089C20.5291 2.97923 21.0166 4.87506 20.6916 7.52923C20.3666 10.0209 19.2833 12.9459 17.6583 15.7626C16.0333 18.5792 14.0291 20.9626 12.0791 22.4792C10.6708 23.5626 9.31661 24.1584 8.17911 24.1584ZM17.8208 2.92506C16.9541 2.92506 15.8166 3.41256 14.5708 4.38756C12.7291 5.85006 10.8333 8.12506 9.26244 10.8334C5.84994 16.7376 5.52494 21.8292 7.31244 22.8584C8.23327 23.4001 9.74994 22.9126 11.4291 21.6126C13.2708 20.1501 15.1666 17.8751 16.7374 15.1667C18.3083 12.4584 19.3374 9.69589 19.6624 7.36673C19.9333 5.20006 19.6083 3.68339 18.6874 3.14173C18.4166 3.03339 18.1458 2.92506 17.8208 2.92506Z" fill="#16B8CD"/>
<path d="M17.8749 24.1584C15.1666 24.1584 11.2666 20.8542 8.34155 15.7084C4.82072 9.6417 4.11655 3.73754 6.77072 2.22087C9.42489 0.704205 14.1916 4.22504 17.7124 10.2917C19.3374 13.1084 20.4207 16.0334 20.7457 18.525C21.1249 21.1792 20.5832 23.0209 19.2291 23.8334C18.7957 24.05 18.3624 24.1584 17.8749 24.1584ZM7.31239 3.1417C5.52489 4.17087 5.84989 9.26254 9.26239 15.1667C12.6749 21.0709 16.8999 23.8875 18.6874 22.8584C19.6082 22.3167 19.9332 20.8 19.6624 18.6334C19.3374 16.3042 18.3082 13.5417 16.7374 10.8334C13.3249 4.9292 9.09989 2.11254 7.31239 3.1417Z" fill="#16B8CD"/>
<path d="M12.9999 15.1666C14.1965 15.1666 15.1666 14.1965 15.1666 12.9999C15.1666 11.8033 14.1965 10.8333 12.9999 10.8333C11.8033 10.8333 10.8333 11.8033 10.8333 12.9999C10.8333 14.1965 11.8033 15.1666 12.9999 15.1666Z" fill="#16B8CD"/>
</svg>
