<svg width="26" height="21" viewBox="0 0 26 21" fill="none" xmlns="http://www.w3.org/2000/svg">
<path d="M4.12575 14.478L2.80051 14.9562L2.72998 18.8496L7.31728 17.1945C5.74257 16.6737 4.59416 15.7557 4.12575 14.478" fill="#FDBD39"/>
<path d="M4.81958 10.3601L0.220703 12.0193L2.80067 14.9573L4.12591 14.479C3.65855 13.2055 3.94696 11.7677 4.81958 10.3601" fill="#F69833"/>
<path d="M12.5577 4.74087C6.70197 6.85336 2.92624 11.2135 4.12622 14.4779L25.3312 6.82737C24.1312 3.563 18.4134 2.62839 12.5577 4.74087" fill="#FECF33"/>
<path d="M16.8983 16.5656C22.754 14.4531 26.536 10.1127 25.3297 6.82861L4.12476 14.4781C5.33105 17.7632 11.0425 18.6781 16.8983 16.5656" fill="#EE6723"/>
<path d="M25.3296 6.82739L4.12573 14.4779C4.54046 15.609 6.12465 16.1662 8.34567 16.1662C10.512 16.1662 13.2845 15.637 16.175 14.5943C22.0307 12.4818 26.1496 9.06047 25.3296 6.82739" fill="#F69833"/>
<path d="M21.1097 5.14014C18.9445 5.14014 16.1708 5.6693 13.2803 6.71203C7.42464 8.82451 3.30576 12.2448 4.12574 14.4779L25.3307 6.82742C24.9149 5.69633 23.3318 5.14014 21.1097 5.14014" fill="#FDBD39"/>
<path fill-rule="evenodd" clip-rule="evenodd" d="M17.2027 17.4024C18.3943 18.5002 19.3143 19.0564 19.9385 19.0564C20.1037 19.0606 20.2658 19.0138 20.4016 18.9223C21.169 18.39 20.5837 16.5904 19.9585 15.1745L19.909 15.0643L19.8027 15.1236C19.7227 15.1693 19.6364 15.2161 19.5479 15.2639L19.4595 15.3117L19.5006 15.4032C20.3827 17.4013 20.3827 18.3276 20.1143 18.5137C20.0679 18.5459 20.0069 18.5615 19.9311 18.5615C19.7111 18.5615 19.0385 18.4129 17.5459 17.0375C16.1606 15.7619 14.5712 13.8885 13.068 11.7604C11.566 9.63338 10.3333 7.51153 9.59757 5.78578C8.806 3.93008 8.82285 3.06512 9.07758 2.88839C9.12074 2.85824 9.18074 2.84369 9.25652 2.84369C9.52178 2.84369 10.3365 3.04225 12.1891 4.88548L12.3575 5.05286L12.3765 4.81687C12.386 4.69731 12.3965 4.57672 12.4081 4.45612L12.4133 4.40414L12.3754 4.36775C10.6565 2.69606 9.72599 2.34571 9.24916 2.34571C9.08495 2.34156 8.9239 2.38834 8.78811 2.47982C8.2018 2.88735 8.31864 4.06419 9.13442 5.97915C9.88388 7.73713 11.1344 9.8912 12.6565 12.0463C14.1796 14.2014 15.7933 16.1039 17.2027 17.4024Z" fill="#EE6723"/>
<path d="M17.0408 16.5052L17.0323 16.6133C16.8839 18.4222 16.4945 20.5971 15.4776 20.6854C15.4566 20.6875 15.4355 20.6875 15.4155 20.6875C14.725 20.6875 14.0713 19.7103 13.4745 17.7839C12.9082 15.9604 12.4693 13.5132 12.2387 10.8923C12.0072 8.27145 12.0103 5.78574 12.2482 3.89261C12.5071 1.83003 12.9998 0.752995 13.7134 0.690619C13.7345 0.68854 13.7566 0.6875 13.7777 0.6875C14.2787 0.6875 15.0334 1.24785 15.806 3.85727L15.3018 3.95291C15.0439 3.08172 14.7629 2.37271 14.484 1.88409C14.2261 1.43394 13.9745 1.18547 13.7777 1.18547C13.7713 1.18547 13.765 1.18547 13.7577 1.18651C13.4482 1.21354 12.9977 1.95374 12.7471 3.95395C12.5135 5.81277 12.5103 8.26209 12.7387 10.8486C12.9671 13.4362 13.3987 15.8471 13.9545 17.6373C14.2029 18.4388 14.4755 19.1 14.744 19.5481C14.9903 19.9619 15.2292 20.1895 15.4155 20.1895C15.4218 20.1895 15.4282 20.1895 15.4345 20.1885C15.7303 20.1635 16.2881 19.3921 16.5229 16.6798L17.0408 16.5052Z" fill="#EE6723"/>
</svg>
